PathFileType	4	(X/Y/Z)	/Users/itak/Documents/Research/Walk-IL/dataset/trc/00044_00004.trc
DataRate	CameraRate	NumFrames	NumMarkers	Units	OrigDataRate	OrigDataStartFrame	OrigNumFrames
100.000000	100.000000	4	53	mm	100.000000	0	514
Frame#	Time	RPSI			LPSI			L3			STRN			T10			C7			CLAV			RBAK			LBAK			LSHO			LUPA			LAEL			LAOL			LWTS			LWPS			LFRA			LIFD			LHPS			LHTS			RSHO			RUPA			RAEL			RAOL			RWTS			RWPS			RFRA			RIFD			RHTS			RHPS			RBHD			LFHD			RFHD			LBHD			LHIP			RHIP			RASI			LASI			LKNE			LTHI			LANK			LTIP			LTOE			LMT1			LMT5			LHEE			RKNE			RTHI			RANK			RTIP			RTOE			RMT1			RMT5			RHEE			
		X1	Y1	Z1	X2	Y2	Z2	X3	Y3	Z3	X4	Y4	Z4	X5	Y5	Z5	X6	Y6	Z6	X7	Y7	Z7	X8	Y8	Z8	X9	Y9	Z9	X10	Y10	Z10	X11	Y11	Z11	X12	Y12	Z12	X13	Y13	Z13	X14	Y14	Z14	X15	Y15	Z15	X16	Y16	Z16	X17	Y17	Z17	X18	Y18	Z18	X19	Y19	Z19	X20	Y20	Z20	X21	Y21	Z21	X22	Y22	Z22	X23	Y23	Z23	X24	Y24	Z24	X25	Y25	Z25	X26	Y26	Z26	X27	Y27	Z27	X28	Y28	Z28	X29	Y29	Z29	X30	Y30	Z30	X31	Y31	Z31	X32	Y32	Z32	X33	Y33	Z33	X34	Y34	Z34	X35	Y35	Z35	X36	Y36	Z36	X37	Y37	Z37	X38	Y38	Z38	X39	Y39	Z39	X40	Y40	Z40	X41	Y41	Z41	X42	Y42	Z42	X43	Y43	Z43	X44	Y44	Z44	X45	Y45	Z45	X46	Y46	Z46	X47	Y47	Z47	X48	Y48	Z48	X49	Y49	Z49	X50	Y50	Z50	X51	Y51	Z51	X52	Y52	Z52	X53	Y53	Z53	

1	0	-1277.459594726562	1074.959594726562	152.6769409179688	-1267.7314453125	1063.990844726562	-11.2853479385376	-1278.453857421875	1125.634521484375	58.80083084106445	-1067.38037109375	1324.798706054688	83.51470184326172	-1311.046020507812	1268.353637695312	45.11536407470703	-1266.760498046875	1538.21337890625	34.659423828125	-1110.46875	1449.113891601562	69.60685729980469	-1328.294189453125	1399.918579101562	108.2902069091797	-1267.772583007812	1493.94873046875	-63.19453811645508	-1153.904052734375	1501.778686523438	-120.0578384399414	-1169.166259765625	1372.846313476562	-198.14306640625	-1163.7021484375	1153.564575195312	-214.9918365478516	-1231.659790039062	1143.871215820312	-134.5485687255859	-1088.474731445312	901.6265258789062	-139.6005859375	-1156.876586914062	887.35888671875	-192.6697082519531	-1150.5029296875	1037.734741210938	-215.6199493408203	-1055.068969726562	727.5819091796875	-119.1787948608398	-1124.771484375	797.480224609375	-184.4512634277344	-1065.253662109375	808.5242919921875	-146.7418212890625	-1222.182739257812	1526.429077148438	221.8738861083984	-1248.061401367188	1458.1337890625	290.7900695800781	-1288.016235351562	1190.296875	312.4151000976562	-1266.368774414062	1160.258178710938	219.3656463623047	-1150.398559570312	932.5039672851562	316.8931579589844	-1226.161743164062	918.3547973632812	369.7492980957031	-1278.149658203125	1114.49462890625	332.6412048339844	-1130.21826171875	750.3866577148438	304.7180480957031	-1118.248779296875	825.2935791015625	338.6539916992188	-1182.843139648438	819.54248046875	378.74365234375	-1201.986328125	1731.877197265625	-4.811339378356934	-1037.073608398438	1724.057006835938	138.4561462402344	-1026.207275390625	1730.825073242188	40.90338516235352	-1212.023803710938	1719.059692382812	139.0559844970703	-1161.286376953125	962.5250244140625	-109.2936859130859	-1170.528564453125	962.6271362304688	262.8115539550781	-1063.62060546875	999.5844116210938	196.8586730957031	-1052.466918945312	1012.432678222656	-38.7033805847168	-1128.122924804688	519.498779296875	-53.22694778442383	-1145.15869140625	655.9042358398438	-91.30216217041016	-1231.9130859375	43.74631118774414	-59.34770584106445	-1211.118041992188	289.8175964355469	-77.70354461669922	-1020.821594238281	41.90738296508789	29.71231651306152	-1082.442260742188	51.55540466308594	38.80899047851562	-1106.587646484375	42.41067123413086	-64.65280914306641	-1306.665649414062	50.73881530761719	-15.67995834350586	-1156.491943359375	525.104736328125	204.99609375	-1144.378540039062	793.5670776367188	256.7894897460938	-1266.8759765625	46.18301010131836	164.1288452148438	-1183.049560546875	403.1888732910156	200.3660583496094	-1032.697875976562	45.42177581787109	135.6337127685547	-1093.411987304688	51.56572341918945	103.572021484375	-1119.025390625	44.9527473449707	196.3673248291016	-1318.36572265625	48.84140396118164	115.073112487793	
2	0.01	-1277.388549804688	1074.959838867188	152.7452087402344	-1267.768920898438	1064.001220703125	-11.23776340484619	-1278.435791015625	1125.634765625	58.87734222412109	-1067.349975585938	1324.798095703125	83.46635437011719	-1311.046142578125	1268.361328125	45.2401008605957	-1266.766723632812	1538.230224609375	34.81537246704102	-1110.442504882812	1449.109130859375	69.59751892089844	-1328.250610351562	1399.921630859375	108.4278945922852	-1267.808715820312	1493.97412109375	-63.11801147460938	-1154.027221679688	1501.792846679688	-120.0250244140625	-1169.301513671875	1372.872314453125	-198.1038360595703	-1163.873168945312	1153.57666015625	-214.9851226806641	-1231.779052734375	1143.887329101562	-134.4982757568359	-1088.56591796875	901.6270141601562	-139.683837890625	-1156.967407226562	887.3734741210938	-192.6661529541016	-1150.617065429688	1037.750122070312	-215.6075439453125	-1055.204956054688	727.5247192382812	-119.1741638183594	-1124.861694335938	797.4197387695312	-184.5353851318359	-1065.349609375	808.5262451171875	-146.8023071289062	-1222.04150390625	1526.419799804688	221.9621429443359	-1247.982666015625	1458.103881835938	290.8211975097656	-1287.827026367188	1190.277709960938	312.5155944824219	-1266.288818359375	1160.257934570312	219.4160766601562	-1150.316650390625	932.4356689453125	316.808349609375	-1226.04833984375	918.3138427734375	369.7096862792969	-1277.993286132812	1114.466796875	332.7034606933594	-1130.138305664062	750.3410034179688	304.6119384765625	-1118.193603515625	825.1905517578125	338.584228515625	-1182.752685546875	819.4700927734375	378.7061767578125	-1202.050048828125	1731.909423828125	-4.515102863311768	-1036.48681640625	1723.820434570312	137.9711303710938	-1026.075561523438	1730.607177734375	40.33612442016602	-1211.350830078125	1719.07177734375	139.3759002685547	-1161.351684570312	962.5366821289062	-109.3072814941406	-1170.359130859375	962.5470581054688	262.7932434082031	-1063.56591796875	999.5830078125	196.7968902587891	-1052.488525390625	1012.453674316406	-38.74925231933594	-1128.170043945312	519.5016479492188	-53.25685119628906	-1145.215698242188	655.915283203125	-91.32508850097656	-1231.910278320312	43.7431640625	-59.3431510925293	-1211.125732421875	289.8161315917969	-77.70801544189453	-1020.821960449219	41.90707015991211	29.70891571044922	-1082.447387695312	51.55339050292969	38.80546569824219	-1106.593383789062	42.41326904296875	-64.65598297119141	-1306.616577148438	50.67557144165039	-15.65442085266113	-1156.46240234375	525.0960693359375	204.9845275878906	-1144.268188476562	793.5801391601562	256.7687072753906	-1266.877319335938	46.18354797363281	164.1298675537109	-1183.004638671875	403.2209777832031	200.339111328125	-1032.68017578125	45.44495391845703	135.6502380371094	-1093.415405273438	51.55899810791016	103.5670166015625	-1119.01708984375	44.9736328125	196.3619995117188	-1318.3408203125	48.86692428588867	115.0919723510742	
3	0.02	-1277.302734375	1074.960327148438	152.8297576904297	-1267.813354492188	1064.018310546875	-11.17539978027344	-1278.4189453125	1125.6357421875	58.97015762329102	-1067.3134765625	1324.7958984375	83.4095458984375	-1311.043579101562	1268.371704101562	45.39739990234375	-1266.76220703125	1538.241943359375	35.01576995849609	-1110.409545898438	1449.10498046875	69.58685302734375	-1328.1943359375	1399.92919921875	108.6036987304688	-1267.8505859375	1494.00732421875	-63.01995086669922	-1154.179321289062	1501.811279296875	-119.9826126098633	-1169.467651367188	1372.904174804688	-198.0543823242188	-1164.073974609375	1153.59375	-214.9723663330078	-1231.92626953125	1143.906860351562	-134.4329071044922	-1088.668090820312	901.6317138671875	-139.7852630615234	-1157.08447265625	887.3935546875	-192.6626434326172	-1150.75341796875	1037.770263671875	-215.5925445556641	-1055.382202148438	727.4509887695312	-119.1630477905273	-1124.985229492188	797.3687133789062	-184.6295471191406	-1065.472412109375	808.5292358398438	-146.8794403076172	-1221.88037109375	1526.414916992188	222.0635681152344	-1247.85986328125	1458.0693359375	290.8747863769531	-1287.596435546875	1190.255249023438	312.63623046875	-1266.185546875	1160.25732421875	219.4815979003906	-1150.226196289062	932.3497314453125	316.7015991210938	-1225.913208007812	918.2623901367188	369.6636047363281	-1277.804443359375	1114.432006835938	332.7782592773438	-1130.03759765625	750.2979125976562	304.4833679199219	-1118.131103515625	825.0721435546875	338.4939270019531	-1182.657958984375	819.3826904296875	378.6463623046875	-1202.096313476562	1731.9580078125	-4.152431488037109	-1035.741577148438	1723.524536132812	137.3578033447266	-1025.8857421875	1730.336791992188	39.64756774902344	-1210.519775390625	1719.099731445312	139.7650299072266	-1161.435424804688	962.550537109375	-109.322380065918	-1170.11865234375	962.4351196289062	262.7655944824219	-1063.500244140625	999.580810546875	196.7235107421875	-1052.515625	1012.477233886719	-38.80475234985352	-1128.230346679688	519.5062866210938	-53.29718017578125	-1145.285766601562	655.9273681640625	-91.35469818115234	-1231.90869140625	43.74142837524414	-59.34065628051758	-1211.136474609375	289.8145751953125	-77.71389007568359	-1020.822326660156	41.90703964233398	29.70556640625	-1082.45458984375	51.55062866210938	38.80085754394531	-1106.599365234375	42.41596603393555	-64.65939331054688	-1306.5732421875	50.61781311035156	-15.63155364990234	-1156.426025390625	525.08544921875	204.971923828125	-1144.118408203125	793.5997924804688	256.7456970214844	-1266.879272460938	46.18447875976562	164.1307830810547	-1182.95361328125	403.2537536621094	200.3103790283203	-1032.669677734375	45.45702743530273	135.6557922363281	-1093.419189453125	51.55294799804688	103.5619583129883	-1119.008422851562	44.99376678466797	196.355712890625	-1318.322387695312	48.88571166992188	115.1097183227539	
4	0.03	-1277.207397460938	1074.961303710938	152.92626953125	-1267.861328125	1064.04296875	-11.09926986694336	-1278.406616210938	1125.63720703125	59.0741081237793	-1067.27294921875	1324.791625976562	83.34812927246094	-1311.03857421875	1268.384521484375	45.58036804199219	-1266.741455078125	1538.243286132812	35.25358581542969	-1110.370483398438	1449.102661132812	69.57579040527344	-1328.126831054688	1399.942626953125	108.8113403320312	-1267.89599609375	1494.047485351562	-62.90249633789062	-1154.352294921875	1501.833984375	-119.9318771362305	-1169.657470703125	1372.94091796875	-197.9965362548828	-1164.291625976562	1153.6162109375	-214.95263671875	-1232.095581054688	1143.92919921875	-134.3550567626953	-1088.773071289062	901.6444091796875	-139.8956146240234	-1157.22509765625	887.4190673828125	-192.6597290039062	-1150.903930664062	1037.79443359375	-215.5758514404297	-1055.58740234375	727.3682250976562	-119.1493072509766	-1125.138793945312	797.337646484375	-184.7252655029297	-1065.618774414062	808.534912109375	-146.9713745117188	-1221.711547851562	1526.417114257812	222.1703796386719	-1247.684814453125	1458.033447265625	290.9569091796875	-1287.338989257812	1190.2314453125	312.7686462402344	-1266.063354492188	1160.256103515625	219.5596160888672	-1150.135009765625	932.250244140625	316.5783386230469	-1225.765014648438	918.2027587890625	369.6148681640625	-1277.593627929688	1114.39208984375	332.8610229492188	-1129.921508789062	750.263427734375	304.3399047851562	-1118.068237304688	824.9485473632812	338.3864440917969	-1182.5625	819.285400390625	378.5596923828125	-1202.112915039062	1732.025390625	-3.74210524559021	-1034.869140625	1723.182373046875	136.6412506103516	-1025.639526367188	1730.025268554688	38.8731689453125	-1209.571411132812	1719.147827148438	140.2033996582031	-1161.534423828125	962.5657958984375	-109.3373641967773	-1169.812255859375	962.2969360351562	262.7279357910156	-1063.427001953125	999.5775146484375	196.6424407958984	-1052.547119140625	1012.500854492188	-38.86616134643555	-1128.30126953125	519.51220703125	-53.34682464599609	-1145.364990234375	655.9392700195312	-91.39009857177734	-1231.908813476562	43.74176025390625	-59.34117889404297	-1211.150146484375	289.8131713867188	-77.72090148925781	-1020.822448730469	41.90729522705078	29.70247650146484	-1082.463500976562	51.54743576049805	38.79536437988281	-1106.604125976562	42.41798400878906	-64.66234588623047	-1306.546508789062	50.57894134521484	-15.61697101593018	-1156.38525390625	525.0734252929688	204.9589233398438	-1143.932861328125	793.625732421875	256.7217712402344	-1266.882080078125	46.1859245300293	164.1312255859375	-1182.900390625	403.2858581542969	200.2804718017578	-1032.669067382812	45.45493316650391	135.6480102539062	-1093.422485351562	51.54853057861328	103.5569686889648	-1119.000610351562	45.01108169555664	196.3491058349609	-1318.312377929688	48.89459609985352	115.1250686645508	
